<svg xmlns="http://www.w3.org/2000/svg" xmlns:xlink="http://www.w3.org/1999/xlink" viewBox="0 0 492.97 490.2"><defs><style>.cls-1{fill:#fff;}.cls-2{clip-path:url(#clip-path);}.cls-3{clip-path:url(#clip-path-2);}.cls-4{clip-path:url(#clip-path-3);}</style><clipPath id="clip-path"><path class="cls-1" d="M469.79,452.77A63.34,63.34,0,0,1,476,442.46c3.33-4.7,6.55-19.5,3.84-20.55-5-2-10.76-1.78-16.21-2.11-1.55-.09-3.21,1-4.74,1.74-13.05,6.22-23.27,16.13-30.75,29l-4.1-6.7c-.67,3.87-1,5.67-1.4,8.11C414.85,439.14,405.11,430,393,424.76c-5.62-2.43-12.13-2.91-18.27-3.11-5.07-.17-6.83,3.21-6.14,9.34,1,8.49,6.29,13.69,9.8,20.36,4.17,7.95,9,11.2,18.3,8-10.09,12.29-10.88,15.44-3.35,21.87,4.61,3.93,11.22,7.61,16.61,7.13,6.17-.56,7.75-8.61,8.84-15.25.57-3.51,1.91-6.87,2.91-10.3l1.72.51q.66,10.14,1.31,20.29h2q0-10.22,0-20.42l2.33-.36c1.05,3.53,2.35,7,3.1,10.61,2.84,13.67,7.88,16.76,19.42,11.64,11.78-5.22,13.41-15.7,3.86-24.64-.22-.21-.14-.83-.27-1.75C460.79,459.07,466.55,459.82,469.79,452.77Z"/></clipPath><clipPath id="clip-path-2"><path class="cls-1" d="M483.73,168.05c-17.09-6.67-36.67-6.05-55.27-7.19-5.28-.32-10.92,3.44-16.16,5.93-44.47,21.2-79.34,55-104.83,98.82l-14-22.85-4.76,27.64c-26.42-43.61-59.64-74.77-101-92.63-19.16-8.27-41.35-9.91-62.28-10.6-17.29-.57-23.28,10.93-20.92,31.84,3.28,29,21.44,46.67,33.39,69.4,14.24,27.12,30.55,38.19,62.41,27.32-34.42,41.93-37.11,52.67-11.42,74.58,15.72,13.41,38.24,25.95,56.64,24.29,21-1.88,26.42-29.34,30.12-52,1.95-12,6.52-23.43,9.92-35.12l5.87,1.74q2.24,34.61,4.48,69.19h6.65q0-34.82.08-69.64l8-1.21c3.57,12,8,23.87,10.56,36.17,9.68,46.61,26.86,57.13,66.21,39.69,40.16-17.79,45.73-53.52,13.16-84-.77-.72-.48-2.82-.93-6,19.26,1.28,38.9,3.85,49.94-20.2,5.72-12.46,13.22-24.12,21-35.15C482,222.1,493,171.65,483.73,168.05Z"/></clipPath><clipPath id="clip-path-3"><path class="cls-1" d="M216.23,4.25C206.54.48,195.45.83,184.91.18c-3-.18-6.19,2-9.16,3.36-25.2,12-45,31.17-59.41,56-2.1-3.44-4.14-6.76-7.92-13l-2.7,15.67c-15-24.72-33.8-42.38-57.23-52.5-10.86-4.68-23.44-5.62-35.3-6C3.39,3.43,0,10,1.34,21.8,3.19,38.21,13.49,48.25,20.26,61.13,28.33,76.5,37.58,82.78,55.63,76.62c-19.5,23.76-21,29.84-6.47,42.26,8.91,7.6,21.67,14.7,32.1,13.77,11.91-1.07,15-16.63,17.07-29.46,1.1-6.79,3.7-13.28,5.62-19.9l3.32,1,2.55,39.21h3.77l0-39.47,4.52-.69c2,6.83,4.53,13.53,6,20.5,5.49,26.42,15.22,32.38,37.52,22.5,22.76-10.09,25.92-30.34,7.46-47.61-.43-.41-.27-1.61-.52-3.38,10.91.72,22,2.18,28.3-11.45A124.58,124.58,0,0,1,208.82,44C215.26,34.89,221.46,6.29,216.23,4.25Z"/></clipPath></defs><title>deyavRecurso 2</title><g id="Capa_2" data-name="Capa 2"><g id="Capa_1-2" data-name="Capa 1"><path class="cls-1" d="M469.79,452.77A63.34,63.34,0,0,1,476,442.46c3.33-4.7,6.55-19.5,3.84-20.55-5-2-10.76-1.78-16.21-2.11-1.55-.09-3.21,1-4.74,1.74-13.05,6.22-23.27,16.13-30.75,29l-4.1-6.7c-.67,3.87-1,5.67-1.4,8.11C414.85,439.14,405.11,430,393,424.76c-5.62-2.43-12.13-2.91-18.27-3.11-5.07-.17-6.83,3.21-6.14,9.34,1,8.49,6.29,13.69,9.8,20.36,4.17,7.95,9,11.2,18.3,8-10.09,12.29-10.88,15.44-3.35,21.87,4.61,3.93,11.22,7.61,16.61,7.13,6.17-.56,7.75-8.61,8.84-15.25.57-3.51,1.91-6.87,2.91-10.3l1.72.51q.66,10.14,1.31,20.29h2q0-10.22,0-20.42l2.33-.36c1.05,3.53,2.35,7,3.1,10.61,2.84,13.67,7.88,16.76,19.42,11.64,11.78-5.22,13.41-15.7,3.86-24.64-.22-.21-.14-.83-.27-1.75C460.79,459.07,466.55,459.82,469.79,452.77Z"/><g class="cls-2"><polygon class="cls-1" points="367.89 489.24 368 490.19 367.89 490.19 367.89 489.24"/><polygon class="cls-1" points="367.89 479.82 369.08 490.19 368 490.19 367.89 489.24 367.89 479.82"/><polygon class="cls-1" points="367.89 470.4 370.15 490.19 369.08 490.19 367.89 479.82 367.89 470.4"/><polygon class="cls-1" points="367.89 460.99 371.23 490.19 370.15 490.19 367.89 470.4 367.89 460.99"/><polygon class="cls-1" points="367.89 451.57 372.3 490.19 371.23 490.19 367.89 460.99 367.89 451.57"/><polygon class="cls-1" points="367.89 442.15 373.38 490.19 372.3 490.19 367.89 451.57 367.89 442.15"/><polygon class="cls-1" points="367.89 432.74 374.46 490.19 373.38 490.19 367.89 442.15 367.89 432.74"/><polygon class="cls-1" points="367.89 423.32 375.53 490.19 374.46 490.19 367.89 432.74 367.89 423.32"/><polygon class="cls-1" points="368.55 419.71 376.61 490.19 375.53 490.19 367.89 423.32 367.89 419.71 368.55 419.71"/><polygon class="cls-1" points="369.63 419.71 377.68 490.19 376.61 490.19 368.55 419.71 369.63 419.71"/><polygon class="cls-1" points="370.71 419.71 378.76 490.19 377.68 490.19 369.63 419.71 370.71 419.71"/><polygon class="cls-1" points="371.78 419.71 379.83 490.19 378.76 490.19 370.71 419.71 371.78 419.71"/><polygon class="cls-1" points="372.86 419.71 380.91 490.19 379.83 490.19 371.78 419.71 372.86 419.71"/><polygon class="cls-1" points="373.93 419.71 381.99 490.19 380.91 490.19 372.86 419.71 373.93 419.71"/><polygon class="cls-1" points="375.01 419.71 383.06 490.19 381.99 490.19 373.93 419.71 375.01 419.71"/><polygon class="cls-1" points="376.08 419.71 384.14 490.19 383.06 490.19 375.01 419.71 376.08 419.71"/><polygon class="cls-1" points="377.16 419.71 385.21 490.19 384.14 490.19 376.08 419.71 377.16 419.71"/><polygon class="cls-1" points="378.24 419.71 386.29 490.19 385.21 490.19 377.16 419.71 378.24 419.71"/><polygon class="cls-1" points="379.31 419.71 387.37 490.19 386.29 490.19 378.24 419.71 379.31 419.71"/><polygon class="cls-1" points="380.39 419.71 388.44 490.19 387.37 490.19 379.31 419.71 380.39 419.71"/><polygon class="cls-1" points="381.46 419.71 389.52 490.19 388.44 490.19 380.39 419.71 381.46 419.71"/><polygon class="cls-1" points="382.54 419.71 390.6 490.19 389.52 490.19 381.46 419.71 382.54 419.71"/><polygon class="cls-1" points="383.62 419.71 391.67 490.19 390.6 490.19 382.54 419.71 383.62 419.71"/><polygon class="cls-1" points="384.69 419.71 392.75 490.19 391.67 490.19 383.62 419.71 384.69 419.71"/><polygon class="cls-1" points="385.77 419.71 393.82 490.19 392.75 490.19 384.69 419.71 385.77 419.71"/><polygon class="cls-1" points="386.85 419.71 394.9 490.19 393.82 490.19 385.77 419.71 386.85 419.71"/><polygon class="cls-1" points="387.92 419.71 395.97 490.19 394.9 490.19 386.85 419.71 387.92 419.71"/><polygon class="cls-1" points="389 419.71 397.05 490.19 395.97 490.19 387.92 419.71 389 419.71"/><polygon class="cls-1" points="390.07 419.71 398.13 490.19 397.05 490.19 389 419.71 390.07 419.71"/><polygon class="cls-1" points="391.15 419.71 399.2 490.19 398.13 490.19 390.07 419.71 391.15 419.71"/><polygon class="cls-1" points="392.22 419.71 400.28 490.19 399.2 490.19 391.15 419.71 392.22 419.71"/><polygon class="cls-1" points="393.3 419.71 401.35 490.19 400.28 490.19 392.22 419.71 393.3 419.71"/><polygon class="cls-1" points="394.38 419.71 402.43 490.19 401.35 490.19 393.3 419.71 394.38 419.71"/><polygon class="cls-1" points="395.45 419.71 403.51 490.19 402.43 490.19 394.38 419.71 395.45 419.71"/><polygon class="cls-1" points="396.53 419.71 404.58 490.19 403.51 490.19 395.45 419.71 396.53 419.71"/><polygon class="cls-1" points="397.6 419.71 405.66 490.19 404.58 490.19 396.53 419.71 397.6 419.71"/><polygon class="cls-1" points="398.68 419.71 406.73 490.19 405.66 490.19 397.6 419.71 398.68 419.71"/><polygon class="cls-1" points="399.76 419.71 407.81 490.19 406.73 490.19 398.68 419.71 399.76 419.71"/><polygon class="cls-1" points="400.83 419.71 408.89 490.19 407.81 490.19 399.76 419.71 400.83 419.71"/><polygon class="cls-1" points="401.91 419.71 409.96 490.19 408.89 490.19 400.83 419.71 401.91 419.71"/><polygon class="cls-1" points="402.98 419.71 411.04 490.19 409.96 490.19 401.91 419.71 402.98 419.71"/><polygon class="cls-1" points="404.06 419.71 412.11 490.19 411.04 490.19 402.98 419.71 404.06 419.71"/><polygon class="cls-1" points="405.14 419.71 413.19 490.19 412.11 490.19 404.06 419.71 405.14 419.71"/><polygon class="cls-1" points="406.21 419.71 414.26 490.19 413.19 490.19 405.14 419.71 406.21 419.71"/><polygon class="cls-1" points="407.29 419.71 415.34 490.19 414.26 490.19 406.21 419.71 407.29 419.71"/><polygon class="cls-1" points="408.36 419.71 416.42 490.19 415.34 490.19 407.29 419.71 408.36 419.71"/><polygon class="cls-1" points="409.44 419.71 417.49 490.19 416.42 490.19 408.36 419.71 409.44 419.71"/><polygon class="cls-1" points="410.52 419.71 418.57 490.19 417.49 490.19 409.44 419.71 410.52 419.71"/><polygon class="cls-1" points="411.59 419.71 419.64 490.19 418.57 490.19 410.52 419.71 411.59 419.71"/><polygon class="cls-1" points="412.67 419.71 420.72 490.19 419.64 490.19 411.59 419.71 412.67 419.71"/><polygon class="cls-1" points="413.74 419.71 421.8 490.19 420.72 490.19 412.67 419.71 413.74 419.71"/><polygon class="cls-1" points="414.82 419.71 422.87 490.19 421.8 490.19 413.74 419.71 414.82 419.71"/><polygon class="cls-1" points="415.89 419.71 423.95 490.19 422.87 490.19 414.82 419.71 415.89 419.71"/><polygon class="cls-1" points="416.97 419.71 425.02 490.19 423.95 490.19 415.89 419.71 416.97 419.71"/><polygon class="cls-1" points="418.05 419.71 426.1 490.19 425.02 490.19 416.97 419.71 418.05 419.71"/><polygon class="cls-1" points="419.12 419.71 427.18 490.19 426.1 490.19 418.05 419.71 419.12 419.71"/><polygon class="cls-1" points="420.2 419.71 428.25 490.19 427.18 490.19 419.12 419.71 420.2 419.71"/><polygon class="cls-1" points="421.27 419.71 429.33 490.19 428.25 490.19 420.2 419.71 421.27 419.71"/><polygon class="cls-1" points="422.35 419.71 430.4 490.19 429.33 490.19 421.27 419.71 422.35 419.71"/><polygon class="cls-1" points="423.43 419.71 431.48 490.19 430.4 490.19 422.35 419.71 423.43 419.71"/><polygon class="cls-1" points="424.5 419.71 432.56 490.19 431.48 490.19 423.43 419.71 424.5 419.71"/><polygon class="cls-1" points="425.58 419.71 433.63 490.19 432.56 490.19 424.5 419.71 425.58 419.71"/><polygon class="cls-1" points="426.65 419.71 434.71 490.19 433.63 490.19 425.58 419.71 426.65 419.71"/><polygon class="cls-1" points="427.73 419.71 435.78 490.19 434.71 490.19 426.65 419.71 427.73 419.71"/><polygon class="cls-1" points="428.81 419.71 436.86 490.19 435.78 490.19 427.73 419.71 428.81 419.71"/><polygon class="cls-1" points="429.88 419.71 437.94 490.19 436.86 490.19 428.81 419.71 429.88 419.71"/><polygon class="cls-1" points="430.96 419.71 439.01 490.19 437.94 490.19 429.88 419.71 430.96 419.71"/><polygon class="cls-1" points="432.03 419.71 440.09 490.19 439.01 490.19 430.96 419.71 432.03 419.71"/><polygon class="cls-1" points="433.11 419.71 441.16 490.19 440.09 490.19 432.03 419.71 433.11 419.71"/><polygon class="cls-1" points="434.19 419.71 442.24 490.19 441.16 490.19 433.11 419.71 434.19 419.71"/><polygon class="cls-1" points="435.26 419.71 443.32 490.19 442.24 490.19 434.19 419.71 435.26 419.71"/><polygon class="cls-1" points="436.34 419.71 444.39 490.19 443.32 490.19 435.26 419.71 436.34 419.71"/><polygon class="cls-1" points="437.41 419.71 445.47 490.19 444.39 490.19 436.34 419.71 437.41 419.71"/><polygon class="cls-1" points="438.49 419.71 446.54 490.19 445.47 490.19 437.41 419.71 438.49 419.71"/><polygon class="cls-1" points="439.57 419.71 447.62 490.19 446.54 490.19 438.49 419.71 439.57 419.71"/><polygon class="cls-1" points="440.64 419.71 448.7 490.19 447.62 490.19 439.57 419.71 440.64 419.71"/><polygon class="cls-1" points="441.72 419.71 449.77 490.19 448.7 490.19 440.64 419.71 441.72 419.71"/><polygon class="cls-1" points="442.79 419.71 450.85 490.19 449.77 490.19 441.72 419.71 442.79 419.71"/><polygon class="cls-1" points="443.87 419.71 451.92 490.19 450.85 490.19 442.79 419.71 443.87 419.71"/><polygon class="cls-1" points="444.95 419.71 453 490.19 451.92 490.19 443.87 419.71 444.95 419.71"/><polygon class="cls-1" points="446.02 419.71 454.07 490.19 453 490.19 444.95 419.71 446.02 419.71"/><polygon class="cls-1" points="447.1 419.71 455.15 490.19 454.07 490.19 446.02 419.71 447.1 419.71"/><polygon class="cls-1" points="448.17 419.71 456.23 490.19 455.15 490.19 447.1 419.71 448.17 419.71"/><polygon class="cls-1" points="449.25 419.71 457.3 490.19 456.23 490.19 448.17 419.71 449.25 419.71"/><polygon class="cls-1" points="450.32 419.71 458.37 490.11 457.63 490.19 457.3 490.19 449.25 419.71 450.32 419.71"/><polygon class="cls-1" points="451.4 419.71 459.43 489.99 458.37 490.11 450.32 419.71 451.4 419.71"/><polygon class="cls-1" points="452.48 419.71 460.49 489.87 459.43 489.99 451.4 419.71 452.48 419.71"/><polygon class="cls-1" points="453.55 419.71 461.56 489.75 460.49 489.87 452.48 419.71 453.55 419.71"/><polygon class="cls-1" points="454.63 419.71 462.62 489.63 461.56 489.75 453.55 419.71 454.63 419.71"/><polygon class="cls-1" points="455.7 419.71 463.68 489.5 462.62 489.63 454.63 419.71 455.7 419.71"/><polygon class="cls-1" points="456.78 419.71 464.74 489.38 463.68 489.5 455.7 419.71 456.78 419.71"/><polygon class="cls-1" points="457.86 419.71 465.8 489.26 464.74 489.38 456.78 419.71 457.86 419.71"/><polygon class="cls-1" points="458.93 419.71 466.87 489.14 465.8 489.26 457.86 419.71 458.93 419.71"/><polygon class="cls-1" points="460.01 419.71 467.93 489.02 466.87 489.14 458.93 419.71 460.01 419.71"/><polygon class="cls-1" points="461.08 419.71 468.99 488.9 467.93 489.02 460.01 419.71 461.08 419.71"/><polygon class="cls-1" points="462.16 419.71 470.05 488.78 468.99 488.9 461.08 419.71 462.16 419.71"/><polygon class="cls-1" points="463.24 419.71 471.11 488.65 470.05 488.78 462.16 419.71 463.24 419.71"/><polygon class="cls-1" points="464.31 419.71 472.18 488.53 471.11 488.65 463.24 419.71 464.31 419.71"/><polygon class="cls-1" points="465.39 419.71 473.24 488.41 472.18 488.53 464.31 419.71 465.39 419.71"/><polygon class="cls-1" points="466.46 419.71 474.3 488.29 473.24 488.41 465.39 419.71 466.46 419.71"/><polygon class="cls-1" points="467.54 419.71 475.36 488.17 474.3 488.29 466.46 419.71 467.54 419.71"/><polygon class="cls-1" points="468.62 419.71 476.43 488.05 475.36 488.17 467.54 419.71 468.62 419.71"/><polygon class="cls-1" points="469.69 419.71 477.49 487.93 476.43 488.05 468.62 419.71 469.69 419.71"/><polygon class="cls-1" points="470.77 419.71 478.55 487.81 477.49 487.93 469.69 419.71 470.77 419.71"/><polygon class="cls-1" points="471.84 419.71 479.61 487.68 478.55 487.81 470.77 419.71 471.84 419.71"/><polygon class="cls-1" points="472.92 419.71 480.67 487.56 479.61 487.68 471.84 419.71 472.92 419.71"/><polygon class="cls-1" points="482.51 487.35 480.67 487.56 472.92 419.71 482.51 419.71 482.51 487.35"/></g><path class="cls-1" d="M483.73,168.05c-17.09-6.67-36.67-6.05-55.27-7.19-5.28-.32-10.92,3.44-16.16,5.93-44.47,21.2-79.34,55-104.83,98.82l-14-22.85-4.76,27.64c-26.42-43.61-59.64-74.77-101-92.63-19.16-8.27-41.35-9.91-62.28-10.6-17.29-.57-23.28,10.93-20.92,31.84,3.28,29,21.44,46.67,33.39,69.4,14.24,27.12,30.55,38.19,62.41,27.32-34.42,41.93-37.11,52.67-11.42,74.58,15.72,13.41,38.24,25.95,56.64,24.29,21-1.88,26.42-29.34,30.12-52,1.95-12,6.52-23.43,9.92-35.12l5.87,1.74q2.24,34.61,4.48,69.19h6.65q0-34.82.08-69.64l8-1.21c3.57,12,8,23.87,10.56,36.17,9.68,46.61,26.86,57.13,66.21,39.69,40.16-17.79,45.73-53.52,13.16-84-.77-.72-.48-2.82-.93-6,19.26,1.28,38.9,3.85,49.94-20.2,5.72-12.46,13.22-24.12,21-35.15C482,222.1,493,171.65,483.73,168.05Z"/><g class="cls-3"><polygon class="cls-1" points="102.19 397.61 102.56 400.87 102.19 400.87 102.19 397.61"/><polygon class="cls-1" points="102.19 365.5 106.23 400.87 102.56 400.87 102.19 397.61 102.19 365.5"/><polygon class="cls-1" points="102.19 333.39 109.9 400.87 106.23 400.87 102.19 365.5 102.19 333.39"/><polygon class="cls-1" points="102.19 301.28 113.57 400.87 109.9 400.87 102.19 333.39 102.19 301.28"/><polygon class="cls-1" points="102.19 269.18 117.24 400.87 113.57 400.87 102.19 301.28 102.19 269.18"/><polygon class="cls-1" points="102.19 237.07 120.91 400.87 117.24 400.87 102.19 269.18 102.19 237.07"/><polygon class="cls-1" points="102.19 204.96 124.57 400.87 120.91 400.87 102.19 237.07 102.19 204.96"/><polygon class="cls-1" points="102.19 172.86 128.24 400.87 124.57 400.87 102.19 204.96 102.19 172.86"/><polygon class="cls-1" points="102.19 165.27 104.95 164.96 131.91 400.87 128.24 400.87 102.19 172.86 102.19 165.27"/><polygon class="cls-1" points="104.95 164.96 108.58 164.54 135.58 400.87 131.91 400.87 104.95 164.96"/><polygon class="cls-1" points="108.58 164.54 112.2 164.13 139.25 400.87 135.58 400.87 108.58 164.54"/><polygon class="cls-1" points="112.2 164.13 115.82 163.72 142.91 400.87 139.25 400.87 112.2 164.13"/><polygon class="cls-1" points="115.82 163.72 119.44 163.3 146.58 400.87 142.91 400.87 115.82 163.72"/><polygon class="cls-1" points="119.44 163.3 123.06 162.89 150.25 400.87 146.58 400.87 119.44 163.3"/><polygon class="cls-1" points="123.06 162.89 126.68 162.47 153.92 400.87 150.25 400.87 123.06 162.89"/><polygon class="cls-1" points="126.68 162.47 130.3 162.06 157.59 400.87 153.92 400.87 126.68 162.47"/><polygon class="cls-1" points="130.3 162.06 133.92 161.65 161.26 400.87 157.59 400.87 130.3 162.06"/><polygon class="cls-1" points="133.92 161.65 137.55 161.23 164.93 400.87 161.26 400.87 133.92 161.65"/><polygon class="cls-1" points="137.55 161.23 141.17 160.82 168.59 400.87 164.93 400.87 137.55 161.23"/><polygon class="cls-1" points="141.17 160.82 143.59 160.54 144.8 160.54 172.26 400.87 168.59 400.87 141.17 160.82"/><polygon class="cls-1" points="148.47 160.54 175.93 400.87 172.26 400.87 144.8 160.54 148.47 160.54"/><polygon class="cls-1" points="152.14 160.54 179.6 400.87 175.93 400.87 148.47 160.54 152.14 160.54"/><polygon class="cls-1" points="155.81 160.54 183.27 400.87 179.6 400.87 152.14 160.54 155.81 160.54"/><polygon class="cls-1" points="159.48 160.54 186.94 400.87 183.27 400.87 155.81 160.54 159.48 160.54"/><polygon class="cls-1" points="163.15 160.54 190.6 400.87 186.94 400.87 159.48 160.54 163.15 160.54"/><polygon class="cls-1" points="166.81 160.54 194.27 400.87 190.6 400.87 163.15 160.54 166.81 160.54"/><polygon class="cls-1" points="170.48 160.54 197.94 400.87 194.27 400.87 166.81 160.54 170.48 160.54"/><polygon class="cls-1" points="174.15 160.54 201.61 400.87 197.94 400.87 170.48 160.54 174.15 160.54"/><polygon class="cls-1" points="177.82 160.54 205.28 400.87 201.61 400.87 174.15 160.54 177.82 160.54"/><polygon class="cls-1" points="181.49 160.54 208.95 400.87 205.28 400.87 177.82 160.54 181.49 160.54"/><polygon class="cls-1" points="185.16 160.54 212.62 400.87 208.95 400.87 181.49 160.54 185.16 160.54"/><polygon class="cls-1" points="188.82 160.54 216.28 400.87 212.62 400.87 185.16 160.54 188.82 160.54"/><polygon class="cls-1" points="192.49 160.54 219.95 400.87 216.28 400.87 188.82 160.54 192.49 160.54"/><polygon class="cls-1" points="196.16 160.54 223.62 400.87 219.95 400.87 192.49 160.54 196.16 160.54"/><polygon class="cls-1" points="199.83 160.54 227.29 400.87 223.62 400.87 196.16 160.54 199.83 160.54"/><polygon class="cls-1" points="203.5 160.54 230.96 400.87 227.29 400.87 199.83 160.54 203.5 160.54"/><polygon class="cls-1" points="207.17 160.54 234.63 400.87 230.96 400.87 203.5 160.54 207.17 160.54"/><polygon class="cls-1" points="210.84 160.54 238.29 400.87 234.63 400.87 207.17 160.54 210.84 160.54"/><polygon class="cls-1" points="214.5 160.54 241.96 400.87 238.29 400.87 210.84 160.54 214.5 160.54"/><polygon class="cls-1" points="218.17 160.54 245.63 400.87 241.96 400.87 214.5 160.54 218.17 160.54"/><polygon class="cls-1" points="221.84 160.54 249.3 400.87 245.63 400.87 218.17 160.54 221.84 160.54"/><polygon class="cls-1" points="225.51 160.54 252.97 400.87 249.3 400.87 221.84 160.54 225.51 160.54"/><polygon class="cls-1" points="229.18 160.54 256.64 400.87 252.97 400.87 225.51 160.54 229.18 160.54"/><polygon class="cls-1" points="232.84 160.54 260.3 400.87 256.64 400.87 229.18 160.54 232.84 160.54"/><polygon class="cls-1" points="236.51 160.54 263.97 400.87 260.3 400.87 232.84 160.54 236.51 160.54"/><polygon class="cls-1" points="240.18 160.54 267.64 400.87 263.97 400.87 236.51 160.54 240.18 160.54"/><polygon class="cls-1" points="243.85 160.54 271.31 400.87 267.64 400.87 240.18 160.54 243.85 160.54"/><polygon class="cls-1" points="247.52 160.54 274.98 400.87 271.31 400.87 243.85 160.54 247.52 160.54"/><polygon class="cls-1" points="251.19 160.54 278.65 400.87 274.98 400.87 247.52 160.54 251.19 160.54"/><polygon class="cls-1" points="254.85 160.54 282.31 400.87 278.65 400.87 251.19 160.54 254.85 160.54"/><polygon class="cls-1" points="258.52 160.54 285.98 400.87 282.31 400.87 254.85 160.54 258.52 160.54"/><polygon class="cls-1" points="262.19 160.54 289.65 400.87 285.98 400.87 258.52 160.54 262.19 160.54"/><polygon class="cls-1" points="265.86 160.54 293.32 400.87 289.65 400.87 262.19 160.54 265.86 160.54"/><polygon class="cls-1" points="269.53 160.54 296.99 400.87 293.32 400.87 265.86 160.54 269.53 160.54"/><polygon class="cls-1" points="273.2 160.54 300.66 400.87 296.99 400.87 269.53 160.54 273.2 160.54"/><polygon class="cls-1" points="276.87 160.54 304.32 400.87 300.66 400.87 273.2 160.54 276.87 160.54"/><polygon class="cls-1" points="280.53 160.54 307.99 400.87 304.32 400.87 276.87 160.54 280.53 160.54"/><polygon class="cls-1" points="284.2 160.54 311.66 400.87 307.99 400.87 280.53 160.54 284.2 160.54"/><polygon class="cls-1" points="287.87 160.54 315.33 400.87 311.66 400.87 284.2 160.54 287.87 160.54"/><polygon class="cls-1" points="291.54 160.54 319 400.87 315.33 400.87 287.87 160.54 291.54 160.54"/><polygon class="cls-1" points="295.21 160.54 322.67 400.87 319 400.87 291.54 160.54 295.21 160.54"/><polygon class="cls-1" points="298.88 160.54 326.33 400.87 322.67 400.87 295.21 160.54 298.88 160.54"/><polygon class="cls-1" points="302.54 160.54 330 400.87 326.33 400.87 298.88 160.54 302.54 160.54"/><polygon class="cls-1" points="306.21 160.54 333.67 400.87 330 400.87 302.54 160.54 306.21 160.54"/><polygon class="cls-1" points="309.88 160.54 337.34 400.87 333.67 400.87 306.21 160.54 309.88 160.54"/><polygon class="cls-1" points="313.55 160.54 341.01 400.87 337.34 400.87 309.88 160.54 313.55 160.54"/><polygon class="cls-1" points="317.22 160.54 344.68 400.87 341.01 400.87 313.55 160.54 317.22 160.54"/><polygon class="cls-1" points="320.89 160.54 348.35 400.87 344.68 400.87 317.22 160.54 320.89 160.54"/><polygon class="cls-1" points="324.56 160.54 352.01 400.87 348.35 400.87 320.89 160.54 324.56 160.54"/><polygon class="cls-1" points="328.22 160.54 355.68 400.87 352.01 400.87 324.56 160.54 328.22 160.54"/><polygon class="cls-1" points="331.89 160.54 359.35 400.87 355.68 400.87 328.22 160.54 331.89 160.54"/><polygon class="cls-1" points="335.56 160.54 363.02 400.87 359.35 400.87 331.89 160.54 335.56 160.54"/><polygon class="cls-1" points="339.23 160.54 366.68 400.76 365.7 400.87 363.02 400.87 335.56 160.54 339.23 160.54"/><polygon class="cls-1" points="342.9 160.54 370.3 400.35 366.68 400.76 339.23 160.54 342.9 160.54"/><polygon class="cls-1" points="346.56 160.54 373.92 399.93 370.3 400.35 342.9 160.54 346.56 160.54"/><polygon class="cls-1" points="350.23 160.54 377.54 399.52 373.92 399.93 346.56 160.54 350.23 160.54"/><polygon class="cls-1" points="353.9 160.54 381.16 399.11 377.54 399.52 350.23 160.54 353.9 160.54"/><polygon class="cls-1" points="357.57 160.54 384.78 398.69 381.16 399.11 353.9 160.54 357.57 160.54"/><polygon class="cls-1" points="361.24 160.54 388.4 398.28 384.78 398.69 357.57 160.54 361.24 160.54"/><polygon class="cls-1" points="364.91 160.54 392.02 397.86 388.4 398.28 361.24 160.54 364.91 160.54"/><polygon class="cls-1" points="368.58 160.54 395.64 397.45 392.02 397.86 364.91 160.54 368.58 160.54"/><polygon class="cls-1" points="372.24 160.54 399.26 397.04 395.64 397.45 368.58 160.54 372.24 160.54"/><polygon class="cls-1" points="375.91 160.54 402.89 396.62 399.26 397.04 372.24 160.54 375.91 160.54"/><polygon class="cls-1" points="379.58 160.54 406.51 396.21 402.89 396.62 375.91 160.54 379.58 160.54"/><polygon class="cls-1" points="383.25 160.54 410.13 395.8 406.51 396.21 379.58 160.54 383.25 160.54"/><polygon class="cls-1" points="386.92 160.54 413.75 395.38 410.13 395.8 383.25 160.54 386.92 160.54"/><polygon class="cls-1" points="390.59 160.54 417.37 394.97 413.75 395.38 386.92 160.54 390.59 160.54"/><polygon class="cls-1" points="394.25 160.54 420.99 394.55 417.37 394.97 390.59 160.54 394.25 160.54"/><polygon class="cls-1" points="397.92 160.54 424.61 394.14 420.99 394.55 394.25 160.54 397.92 160.54"/><polygon class="cls-1" points="401.59 160.54 428.23 393.73 424.61 394.14 397.92 160.54 401.59 160.54"/><polygon class="cls-1" points="405.26 160.54 431.86 393.31 428.23 393.73 401.59 160.54 405.26 160.54"/><polygon class="cls-1" points="408.93 160.54 435.48 392.9 431.86 393.31 405.26 160.54 408.93 160.54"/><polygon class="cls-1" points="412.6 160.54 439.1 392.49 435.48 392.9 408.93 160.54 412.6 160.54"/><polygon class="cls-1" points="416.26 160.54 442.72 392.07 439.1 392.49 412.6 160.54 416.26 160.54"/><polygon class="cls-1" points="419.93 160.54 446.34 391.66 442.72 392.07 416.26 160.54 419.93 160.54"/><polygon class="cls-1" points="423.6 160.54 449.96 391.24 446.34 391.66 419.93 160.54 423.6 160.54"/><polygon class="cls-1" points="427.27 160.54 453.58 390.83 449.96 391.24 423.6 160.54 427.27 160.54"/><polygon class="cls-1" points="430.94 160.54 457.2 390.42 453.58 390.83 427.27 160.54 430.94 160.54"/><polygon class="cls-1" points="434.61 160.54 460.82 390 457.2 390.42 430.94 160.54 434.61 160.54"/><polygon class="cls-1" points="438.27 160.54 464.44 389.59 460.82 390 434.61 160.54 438.27 160.54"/><polygon class="cls-1" points="441.94 160.54 468.07 389.18 464.44 389.59 438.27 160.54 441.94 160.54"/><polygon class="cls-1" points="445.61 160.54 471.69 388.76 468.07 389.18 441.94 160.54 445.61 160.54"/><polygon class="cls-1" points="449.28 160.54 475.31 388.35 471.69 388.76 445.61 160.54 449.28 160.54"/><polygon class="cls-1" points="452.95 160.54 478.93 387.94 475.31 388.35 449.28 160.54 452.95 160.54"/><polygon class="cls-1" points="456.62 160.54 482.55 387.52 478.93 387.94 452.95 160.54 456.62 160.54"/><polygon class="cls-1" points="460.29 160.54 486.17 387.11 482.55 387.52 456.62 160.54 460.29 160.54"/><polygon class="cls-1" points="492.97 386.33 486.17 387.11 460.29 160.54 492.97 160.54 492.97 386.33"/></g><path class="cls-1" d="M216.23,4.25C206.54.48,195.45.83,184.91.18c-3-.18-6.19,2-9.16,3.36-25.2,12-45,31.17-59.41,56-2.1-3.44-4.14-6.76-7.92-13l-2.7,15.67c-15-24.72-33.8-42.38-57.23-52.5-10.86-4.68-23.44-5.62-35.3-6C3.39,3.43,0,10,1.34,21.8,3.19,38.21,13.49,48.25,20.26,61.13,28.33,76.5,37.58,82.78,55.63,76.62c-19.5,23.76-21,29.84-6.47,42.26,8.91,7.6,21.67,14.7,32.1,13.77,11.91-1.07,15-16.63,17.07-29.46,1.1-6.79,3.7-13.28,5.62-19.9l3.32,1,2.55,39.21h3.77l0-39.47,4.52-.69c2,6.83,4.53,13.53,6,20.5,5.49,26.42,15.22,32.38,37.52,22.5,22.76-10.09,25.92-30.34,7.46-47.61-.43-.41-.27-1.61-.52-3.38,10.91.72,22,2.18,28.3-11.45A124.58,124.58,0,0,1,208.82,44C215.26,34.89,221.46,6.29,216.23,4.25Z"/><g class="cls-4"><polygon class="cls-1" points="0 134.35 0.21 136.2 0 136.2 0 134.35"/><polygon class="cls-1" points="0 116.15 2.29 136.2 0.21 136.2 0 134.35 0 116.15"/><polygon class="cls-1" points="0 97.96 4.37 136.2 2.29 136.2 0 116.15 0 97.96"/><polygon class="cls-1" points="0 79.76 6.45 136.2 4.37 136.2 0 97.96 0 79.76"/><polygon class="cls-1" points="0 61.57 8.53 136.2 6.45 136.2 0 79.76 0 61.57"/><polygon class="cls-1" points="0 43.37 10.61 136.2 8.53 136.2 0 61.57 0 43.37"/><polygon class="cls-1" points="0 25.18 12.69 136.2 10.61 136.2 0 43.37 0 25.18"/><polygon class="cls-1" points="0 6.98 14.76 136.2 12.69 136.2 0 25.18 0 6.98"/><polygon class="cls-1" points="0 1.81 1.47 1.64 16.84 136.2 14.76 136.2 0 6.98 0 1.81"/><polygon class="cls-1" points="1.47 1.64 3.52 1.41 18.92 136.2 16.84 136.2 1.47 1.64"/><polygon class="cls-1" points="3.52 1.41 5.57 1.17 21 136.2 18.92 136.2 3.52 1.41"/><polygon class="cls-1" points="5.57 1.17 7.63 0.94 23.08 136.2 21 136.2 5.57 1.17"/><polygon class="cls-1" points="7.63 0.94 9.68 0.7 25.16 136.2 23.08 136.2 7.63 0.94"/><polygon class="cls-1" points="9.68 0.7 11.73 0.47 27.24 136.2 25.16 136.2 9.68 0.7"/><polygon class="cls-1" points="11.73 0.47 13.78 0.23 29.32 136.2 27.24 136.2 11.73 0.47"/><polygon class="cls-1" points="13.78 0.23 15.83 0 15.83 0 31.4 136.2 29.32 136.2 13.78 0.23"/><polygon class="cls-1" points="17.91 0 33.48 136.2 31.4 136.2 15.83 0 17.91 0"/><polygon class="cls-1" points="19.99 0 35.55 136.2 33.48 136.2 17.91 0 19.99 0"/><polygon class="cls-1" points="22.07 0 37.63 136.2 35.55 136.2 19.99 0 22.07 0"/><polygon class="cls-1" points="24.15 0 39.71 136.2 37.63 136.2 22.07 0 24.15 0"/><polygon class="cls-1" points="26.23 0 41.79 136.2 39.71 136.2 24.15 0 26.23 0"/><polygon class="cls-1" points="28.31 0 43.87 136.2 41.79 136.2 26.23 0 28.31 0"/><polygon class="cls-1" points="30.39 0 45.95 136.2 43.87 136.2 28.31 0 30.39 0"/><polygon class="cls-1" points="32.47 0 48.03 136.2 45.95 136.2 30.39 0 32.47 0"/><polygon class="cls-1" points="34.55 0 50.11 136.2 48.03 136.2 32.47 0 34.55 0"/><polygon class="cls-1" points="36.62 0 52.19 136.2 50.11 136.2 34.55 0 36.62 0"/><polygon class="cls-1" points="38.7 0 54.27 136.2 52.19 136.2 36.62 0 38.7 0"/><polygon class="cls-1" points="40.78 0 56.34 136.2 54.27 136.2 38.7 0 40.78 0"/><polygon class="cls-1" points="42.86 0 58.42 136.2 56.34 136.2 40.78 0 42.86 0"/><polygon class="cls-1" points="44.94 0 60.5 136.2 58.42 136.2 42.86 0 44.94 0"/><polygon class="cls-1" points="47.02 0 62.58 136.2 60.5 136.2 44.94 0 47.02 0"/><polygon class="cls-1" points="49.1 0 64.66 136.2 62.58 136.2 47.02 0 49.1 0"/><polygon class="cls-1" points="51.18 0 66.74 136.2 64.66 136.2 49.1 0 51.18 0"/><polygon class="cls-1" points="53.26 0 68.82 136.2 66.74 136.2 51.18 0 53.26 0"/><polygon class="cls-1" points="55.34 0 70.9 136.2 68.82 136.2 53.26 0 55.34 0"/><polygon class="cls-1" points="57.41 0 72.98 136.2 70.9 136.2 55.34 0 57.41 0"/><polygon class="cls-1" points="59.49 0 75.06 136.2 72.98 136.2 57.41 0 59.49 0"/><polygon class="cls-1" points="61.57 0 77.13 136.2 75.06 136.2 59.49 0 61.57 0"/><polygon class="cls-1" points="63.65 0 79.21 136.2 77.13 136.2 61.57 0 63.65 0"/><polygon class="cls-1" points="65.73 0 81.29 136.2 79.21 136.2 63.65 0 65.73 0"/><polygon class="cls-1" points="67.81 0 83.37 136.2 81.29 136.2 65.73 0 67.81 0"/><polygon class="cls-1" points="69.89 0 85.45 136.2 83.37 136.2 67.81 0 69.89 0"/><polygon class="cls-1" points="71.97 0 87.53 136.2 85.45 136.2 69.89 0 71.97 0"/><polygon class="cls-1" points="74.05 0 89.61 136.2 87.53 136.2 71.97 0 74.05 0"/><polygon class="cls-1" points="76.13 0 91.69 136.2 89.61 136.2 74.05 0 76.13 0"/><polygon class="cls-1" points="78.2 0 93.77 136.2 91.69 136.2 76.13 0 78.2 0"/><polygon class="cls-1" points="80.28 0 95.84 136.2 93.77 136.2 78.2 0 80.28 0"/><polygon class="cls-1" points="82.36 0 97.92 136.2 95.84 136.2 80.28 0 82.36 0"/><polygon class="cls-1" points="84.44 0 100 136.2 97.92 136.2 82.36 0 84.44 0"/><polygon class="cls-1" points="86.52 0 102.08 136.2 100 136.2 84.44 0 86.52 0"/><polygon class="cls-1" points="88.6 0 104.16 136.2 102.08 136.2 86.52 0 88.6 0"/><polygon class="cls-1" points="90.68 0 106.24 136.2 104.16 136.2 88.6 0 90.68 0"/><polygon class="cls-1" points="92.76 0 108.32 136.2 106.24 136.2 90.68 0 92.76 0"/><polygon class="cls-1" points="94.84 0 110.4 136.2 108.32 136.2 92.76 0 94.84 0"/><polygon class="cls-1" points="96.92 0 112.48 136.2 110.4 136.2 94.84 0 96.92 0"/><polygon class="cls-1" points="98.99 0 114.56 136.2 112.48 136.2 96.92 0 98.99 0"/><polygon class="cls-1" points="101.07 0 116.63 136.2 114.56 136.2 98.99 0 101.07 0"/><polygon class="cls-1" points="103.15 0 118.71 136.2 116.63 136.2 101.07 0 103.15 0"/><polygon class="cls-1" points="105.23 0 120.79 136.2 118.71 136.2 103.15 0 105.23 0"/><polygon class="cls-1" points="107.31 0 122.87 136.2 120.79 136.2 105.23 0 107.31 0"/><polygon class="cls-1" points="109.39 0 124.95 136.2 122.87 136.2 107.31 0 109.39 0"/><polygon class="cls-1" points="111.47 0 127.03 136.2 124.95 136.2 109.39 0 111.47 0"/><polygon class="cls-1" points="113.55 0 129.11 136.2 127.03 136.2 111.47 0 113.55 0"/><polygon class="cls-1" points="115.63 0 131.19 136.2 129.11 136.2 113.55 0 115.63 0"/><polygon class="cls-1" points="117.7 0 133.27 136.2 131.19 136.2 115.63 0 117.7 0"/><polygon class="cls-1" points="119.78 0 135.34 136.2 133.27 136.2 117.7 0 119.78 0"/><polygon class="cls-1" points="121.86 0 137.42 136.2 135.34 136.2 119.78 0 121.86 0"/><polygon class="cls-1" points="123.94 0 139.5 136.2 137.42 136.2 121.86 0 123.94 0"/><polygon class="cls-1" points="126.02 0 141.58 136.2 139.5 136.2 123.94 0 126.02 0"/><polygon class="cls-1" points="128.1 0 143.66 136.2 141.58 136.2 126.02 0 128.1 0"/><polygon class="cls-1" points="130.18 0 145.74 136.2 143.66 136.2 128.1 0 130.18 0"/><polygon class="cls-1" points="132.26 0 147.82 136.2 145.74 136.2 130.18 0 132.26 0"/><polygon class="cls-1" points="134.34 0 149.9 136.2 147.82 136.2 132.26 0 134.34 0"/><polygon class="cls-1" points="136.41 0 151.98 136.2 149.9 136.2 134.34 0 136.41 0"/><polygon class="cls-1" points="138.49 0 154.06 136.2 151.98 136.2 136.41 0 138.49 0"/><polygon class="cls-1" points="140.57 0 156.13 136.2 154.06 136.2 138.49 0 140.57 0"/><polygon class="cls-1" points="142.65 0 158.2 136.06 156.97 136.2 156.13 136.2 140.57 0 142.65 0"/><polygon class="cls-1" points="144.73 0 160.25 135.83 158.2 136.06 142.65 0 144.73 0"/><polygon class="cls-1" points="146.81 0 162.3 135.59 160.25 135.83 144.73 0 146.81 0"/><polygon class="cls-1" points="148.89 0 164.35 135.36 162.3 135.59 146.81 0 148.89 0"/><polygon class="cls-1" points="150.97 0 166.41 135.12 164.35 135.36 148.89 0 150.97 0"/><polygon class="cls-1" points="153.05 0 168.46 134.89 166.41 135.12 150.97 0 153.05 0"/><polygon class="cls-1" points="155.13 0 170.51 134.65 168.46 134.89 153.05 0 155.13 0"/><polygon class="cls-1" points="157.21 0 172.56 134.42 170.51 134.65 155.13 0 157.21 0"/><polygon class="cls-1" points="159.28 0 174.62 134.19 172.56 134.42 157.21 0 159.28 0"/><polygon class="cls-1" points="161.36 0 176.67 133.95 174.62 134.19 159.28 0 161.36 0"/><polygon class="cls-1" points="163.44 0 178.72 133.72 176.67 133.95 161.36 0 163.44 0"/><polygon class="cls-1" points="165.52 0 180.77 133.48 178.72 133.72 163.44 0 165.52 0"/><polygon class="cls-1" points="167.6 0 182.82 133.25 180.77 133.48 165.52 0 167.6 0"/><polygon class="cls-1" points="169.68 0 184.88 133.01 182.82 133.25 167.6 0 169.68 0"/><polygon class="cls-1" points="171.76 0 186.93 132.78 184.88 133.01 169.68 0 171.76 0"/><polygon class="cls-1" points="173.84 0 188.98 132.54 186.93 132.78 171.76 0 173.84 0"/><polygon class="cls-1" points="175.92 0 191.03 132.31 188.98 132.54 173.84 0 175.92 0"/><polygon class="cls-1" points="178 0 193.09 132.07 191.03 132.31 175.92 0 178 0"/><polygon class="cls-1" points="180.07 0 195.14 131.84 193.09 132.07 178 0 180.07 0"/><polygon class="cls-1" points="182.15 0 197.19 131.61 195.14 131.84 180.07 0 182.15 0"/><polygon class="cls-1" points="184.23 0 199.24 131.37 197.19 131.61 182.15 0 184.23 0"/><polygon class="cls-1" points="186.31 0 201.29 131.14 199.24 131.37 184.23 0 186.31 0"/><polygon class="cls-1" points="188.39 0 203.35 130.9 201.29 131.14 186.31 0 188.39 0"/><polygon class="cls-1" points="190.47 0 205.4 130.67 203.35 130.9 188.39 0 190.47 0"/><polygon class="cls-1" points="192.55 0 207.45 130.43 205.4 130.67 190.47 0 192.55 0"/><polygon class="cls-1" points="194.63 0 209.5 130.2 207.45 130.43 192.55 0 194.63 0"/><polygon class="cls-1" points="196.71 0 211.56 129.96 209.5 130.2 194.63 0 196.71 0"/><polygon class="cls-1" points="198.78 0 213.61 129.73 211.56 129.96 196.71 0 198.78 0"/><polygon class="cls-1" points="200.86 0 215.66 129.5 213.61 129.73 198.78 0 200.86 0"/><polygon class="cls-1" points="202.94 0 217.71 129.26 215.66 129.5 200.86 0 202.94 0"/><polygon class="cls-1" points="221.46 128.83 217.71 129.26 202.94 0 221.46 0 221.46 128.83"/></g></g></g></svg>