<svg xmlns="http://www.w3.org/2000/svg" viewBox="0 0 101.72 101.32"><defs><style>.cls-1{fill:#fff;}</style></defs><title>deyavRecurso 2</title><g id="Capa_2" data-name="Capa 2"><g id="Capa_1-2" data-name="Capa 1"><path class="cls-1" d="M47,52.8c-3,4-5.42,8.39-10,11a.32.32,0,0,1-.48-.33A19.22,19.22,0,0,1,38.8,57c1.22-2.11,2.71-4.07,4-6.28a7.94,7.94,0,0,0-1.43.71A73.65,73.65,0,0,0,29.57,62.68c-1.51,1.8-3.21,3.45-4.86,5.12a2.93,2.93,0,0,1-3.67.38,1.83,1.83,0,0,0-2.33.1l-.48.35c-2.3,1.68-4.26.72-4.34-2.13,0-.23,0-.47,0-.71a.32.32,0,0,0-.35-.31l-.9.1a1.53,1.53,0,0,1-1.73-1.19v0c-.22-1-.61-1.85-1.7-2.1a2.26,2.26,0,0,0-2.46,1.13,35.83,35.83,0,0,0-2,3.86A2.34,2.34,0,0,1,2.21,68.9,2,2,0,0,1,.27,67.46,2,2,0,0,1,.63,65c.74-.65,1.53-1.25,2.33-1.83,1.31-.94,2.67-1.85,4-2.78,2.1-1.48,2.52-2.7,1.57-5.08a3.51,3.51,0,0,1,.56-3.88,26.61,26.61,0,0,0,1.53-2.23,2.22,2.22,0,0,0,0-2.75l-.44-.64c-1.06-1.48-1-1.93.68-2.81.36-.19.72-.38,1.07-.58a2.35,2.35,0,0,0,1.25-2.63c-.25-1.59,0-2.09,1.66-2.58a13.93,13.93,0,0,0,4.57-2.37,7.36,7.36,0,0,1,4.33-1.56c.36,0,.72-.06,1.14-.11a.32.32,0,0,0,.19-.55l-.88-.87A9.33,9.33,0,0,1,22.4,20.89c2.92-5.78,5.78-11.59,8.7-17.37A15.1,15.1,0,0,1,32.82.91a3.29,3.29,0,0,1,4-.48A23,23,0,0,1,42.7,5.21a27.55,27.55,0,0,1,6.19,10.65,56,56,0,0,1,3,13.57c.15,2.59-.14,5.2-.24,7.8,0,.54-.08,1.07-.12,1.6l.23.13a4.6,4.6,0,0,0,.75-.71,12.44,12.44,0,0,0,1.1-1.77,12.93,12.93,0,0,1,3.08-4.07,5.69,5.69,0,0,0,1.74-4c0-.36-.52-.78-.81-1.17l-.26.16c0,.46,0,.91,0,1.37,0,.63-.22,1-.88,1a.88.88,0,0,1-.88-1.07,2.47,2.47,0,0,1,1.58-2.13,2.39,2.39,0,0,1,1.72.46,1.86,1.86,0,0,1,.61,2.26,8.73,8.73,0,0,1-3,4.19,8.18,8.18,0,0,0-3.11,4.09c-.14.51-.35,1,.19,1.42s1.05.11,1.51-.22c1.22-.84,1.59-2.24,2.34-3.41a21.88,21.88,0,0,1,2.81-3.82,6.76,6.76,0,0,1,3-1.43,2,2,0,0,1,2.52,1.74,2.27,2.27,0,0,1-2.29,2.24c-.32,0-.63-.27-.95-.42a6.81,6.81,0,0,1,.7-1.31c.1-.12.62.07.92.19s.3.25.66.58c0-.71.23-1.45,0-1.67a2.61,2.61,0,0,0-1.77-.65,3.74,3.74,0,0,0-3,2.3,17.27,17.27,0,0,1-3.43,5.21c-.32.29-.65.58-1,.84-1,.75-1.12.83-.72,1.86a.32.32,0,0,0,.51.13l.56-.48a26.79,26.79,0,0,1,11-5.6A71.36,71.36,0,0,1,87.17,32.9,30.93,30.93,0,0,1,98.76,36,11.79,11.79,0,0,1,101,37.47a2.79,2.79,0,0,1,.51,3.06,17.24,17.24,0,0,1-4.62,6.83c-4,4.09-8,8.28-12,12.38a19.66,19.66,0,0,1-5.65,4A4.16,4.16,0,0,1,75,63.53c-1.23-.75-2.52-1.4-4-2.23.16.56.28.89.36,1.23A46.52,46.52,0,0,1,72.75,69a23.55,23.55,0,0,1-.53,5.77c-.25,1.43-.76,1.71-2.22,1.82a1.46,1.46,0,0,0-1.59,1.49c-.06.45,0,.92-.09,1.38a2.5,2.5,0,0,1-2.24,2.34,30.14,30.14,0,0,0-3.93,1.09A3.13,3.13,0,0,0,60.34,85c-.59,1.61-.88,1.84-2.51,1.71a4.48,4.48,0,0,0-2.9.8,6.61,6.61,0,0,1-1,.62,4,4,0,0,0-2.43,4.23,44.46,44.46,0,0,0,.92,4.68c.09.42.28.83.36,1.25.44,2.24-1.1,3.24-3.19,2.94-.37-.06-.76-.52-1-.89a5.5,5.5,0,0,1-.52-4.13c.28-1.27.65-2.53,1-3.79.07-.3.12-.59.16-.89A2.2,2.2,0,0,0,47.06,89a1.94,1.94,0,0,1-1.76-.91,2.13,2.13,0,0,0-2.23-.63c-2.78.39-2.55-.59-2.35-2.54.08-.7.18-1.39.26-2.09a1.48,1.48,0,0,0-1.36-1.65c-.86,0-1.17-.45-1.16-1.42A14.14,14.14,0,0,1,40,74.3q3.76-8.94,7.48-17.91a3.84,3.84,0,0,0,0-3.54A.33.33,0,0,0,47,52.8Zm7-8.54.34.93c.75,0,1.5,0,2.25,0,4.08,0,8.16,0,12.25-.09a18.76,18.76,0,0,0,6.75-1.85,2.2,2.2,0,0,0,1.08-2c-.16-.78-.83-.88-1.46-1l-1-.23c.24-.45.41-.81.61-1.15.56-.95.52-1.26-.31-1.92a3.78,3.78,0,0,0-3-.7,33.12,33.12,0,0,0-13.79,5.22A43.55,43.55,0,0,0,54,44.26ZM69.52,55a.32.32,0,0,1,.28-.49,5.65,5.65,0,0,0,1,0c.81-.12,1.11-.6.76-1.3a7.83,7.83,0,0,0-3.14-3.72,33.48,33.48,0,0,0-4.51-2c-3.81-1.28-7.67-1.79-11.58-.36-.29.11-.57.24-.93.39a2.64,2.64,0,0,0,.34.29q7.05,4.47,14.1,8.91a9.77,9.77,0,0,0,2.26,1.08,1.93,1.93,0,0,0,1.54-.12A1.89,1.89,0,0,0,70,56.17,3.61,3.61,0,0,0,69.52,55ZM28.1,42.53c-.51.14-.81.23-1.12.29a3.54,3.54,0,0,0-2,1.08c-1.67,1.75-1.08,3.54,1.31,3.94a14.71,14.71,0,0,0,3.85.22C34.55,47.62,39,47,43.38,46.41a4.27,4.27,0,0,0,1-.25,2.36,2.36,0,0,0,.55-.46c-.16-.17-.3-.43-.5-.51-2.92-1.17-5.82-2.4-8.78-3.46A21.73,21.73,0,0,0,28,40.51a1.92,1.92,0,0,0-1.62.65.33.33,0,0,0,.09.49ZM42.64,22.66a.32.32,0,0,0-.45,0,3.12,3.12,0,0,0-.79,2.66,33.06,33.06,0,0,0,2.51,8.38C45,36.29,45.75,39,46.62,41.61a8.91,8.91,0,0,1,.26,1.56,1,1,0,0,0,.27-.57c.53-3.15,1-6.3,1.57-9.44a22.91,22.91,0,0,0-.06-8.81,4.43,4.43,0,0,0-.89-2,2.19,2.19,0,0,0-1.63-.47c-.27,0-.63.63-.72,1a6.22,6.22,0,0,0-.13,1.27.32.32,0,0,1-.53.24Zm2.49,48.89a.33.33,0,0,0,.42.13l1.81-.82a2.33,2.33,0,0,0,.07.69c.23.44.41,1.06.78,1.22s.93-.2,1.26-.49a5.23,5.23,0,0,0,1.73-3,33.71,33.71,0,0,0,.38-9.77A18.8,18.8,0,0,0,49,50.88c-.14.45-.34.74-.3,1A21.56,21.56,0,0,1,47.3,62c-.81,2.26-1.58,4.54-2.38,6.8A3.18,3.18,0,0,0,45.13,71.55Zm-.49-27.93.69-.57c-1.68-5-4.29-9.21-9.9-10.84a2,2,0,0,0-1.92.16.33.33,0,0,0-.08.42l.82,1.4a.33.33,0,0,1-.31.49c-.65-.07-1.32-.15-2-.21s-.85.24-.46.76A6,6,0,0,0,33,36.78C36.82,39.09,40.73,41.35,44.64,43.62ZM55.5,57.41a.33.33,0,0,1,.5-.35c.33.23.62.43.91.61a1.78,1.78,0,0,0,2.67-.41c.57-.82.37-1.66-.63-2.47-.68-.54-1.36-1.08-2.08-1.56-2-1.32-3.95-2.61-5.94-3.89-.18-.13-.47-.09-.72-.13a3.35,3.35,0,0,0,.1.79c.69,1.87,1.43,3.73,2.1,5.61.47,1.33.84,2.7,1.3,4,.24.69.68,1.18,1.52.92s.82-.89.68-1.56C55.79,58.51,55.66,58,55.5,57.41Zm1.28,12.36.47.15c.86.31,2.6,0,2.89-.6A2.46,2.46,0,0,0,59.76,67a2.87,2.87,0,0,0-.56-.69l-4.32-3.75c-.46-.4-.93-.78-1.46-1.22a.32.32,0,0,0-.53.26,18.9,18.9,0,0,0,1.7,7.93,6,6,0,0,0,1.13,1.41l.84-.22Zm-20.89-42-.55.73a10.71,10.71,0,0,0,1.24,1.66c2.24,2.29,4.84,4.22,6.71,6.87,0,0,.1,0,.32.09A7,7,0,0,0,43.39,36c-.32-.84-.68-1.66-1-2.49-1-2.27-1.91-4.53-2.87-6.79-.37-.86-.84-1.61-1.86-1.71a.32.32,0,0,0-.3.14c-.58.87-.09,1.71.15,2.57a.32.32,0,0,1-.41.38Zm-2,25.87a.34.34,0,0,0,.4.31A7.47,7.47,0,0,0,36,53.48a38.84,38.84,0,0,0,7.4-5.29c.15-.12.2-.36.29-.54a1.61,1.61,0,0,0-.53-.19,22.62,22.62,0,0,0-7.87,1.18c-.38.13-.67.52-1,.78l.11.22,1.11.1a.33.33,0,0,1,.23.52C35,51.26,33.82,52,33.9,53.63Zm-1-3.09A.32.32,0,0,0,32.7,50a21.5,21.5,0,0,0-6.54-.2,14.72,14.72,0,0,0-1.86.42c-.14,0-.25.19-.37.3.12.13.22.31.37.38a7.58,7.58,0,0,0,.8.28.33.33,0,0,1,.18.48,15.1,15.1,0,0,0-1,1.74,1.22,1.22,0,0,0,.06,1.08,2.59,2.59,0,0,0,1.27.37c.17,0,.38-.14.55-.23,1.86-1,3.74-2,5.56-3.06A6,6,0,0,0,32.88,50.54ZM76.49,47a.33.33,0,0,0,.11-.49,2,2,0,0,0-1.95-.92c-1.47.14-3,.16-4.41.33a15.75,15.75,0,0,0-2.12.44.32.32,0,0,0-.1.58c1.82,1.23,3.48,2.35,5.13,3.48a2.86,2.86,0,0,0,2.77.36.33.33,0,0,0,.2-.37,4.1,4.1,0,0,0-.4-1.27,3.79,3.79,0,0,0-.81-.84.32.32,0,0,1,.07-.53ZM27.7,57.67c-.08.39-.18.78-.27,1.15-.6,2.59.55,3.24,2.45,1.39a6.64,6.64,0,0,0,.56-.63c1.29-1.75,1.53-3.84,1.86-5.9a.33.33,0,0,0-.38-.37c-2.12.42-4.92,2.79-5.05,4.38Zm29.38,1.68a.33.33,0,0,0-.2.43c.2.52.4,1,.6,1.49a12.32,12.32,0,0,0,.61,1.33A9.37,9.37,0,0,0,59,63.88c.29.36.63.38,1.06.08a3,3,0,0,1,1.33-.5c1.18-.17,1.46-.5,1.22-1.71a3.22,3.22,0,0,0-.27-.81C61.38,59.22,59.37,58.64,57.08,59.35Z"/></g></g></svg>